/* XPM */
static char * title_3_active_xpm[] = {
"1 31 4 1",
" 	c None",
".	c #BBBBBB s inactive_shadow_1",
"+	c #777777 s inactive_color_1",
"@	c #333333 s inactive_hilight_1",
"@",
"@",
"+",
"+",
"+",
".",
"@",
"+",
"+",
"+",
"+",
"+",
"+",
"+",
"+",
"+",
"+",
"+",
"+",
"+",
"+",
"+",
"+",
"+",
"+",
"+",
"+",
"+",
"+",
".",
"@"};
