/* XPM */
static char * bottom_right_active_xpm[] = {
"32 32 4 1",
" 	c None",
".	c #333333 s active_hilight_1 s active_shadow_1",
"+	c #777777 s active_color_1 s active_color_1",
"@	c #BBBBBB s active_shadow_1 s active_hilight_1",
"                          @+++..",
"                          @.....",
"                          @@@@@@",
"                          @+++..",
"                          @+++..",
"                          @+++..",
"                          @+++..",
"                          @+++..",
"                          @+++..",
"                          @+++..",
"                          @+++..",
"                          @+++..",
"                          @+++..",
"                          @+++..",
"                          @+++..",
"                          @+++..",
"                          @+++..",
"                          @+++..",
"                          @+++..",
"                          @+++..",
"                          @+++..",
"                          @+++..",
"                          @+++..",
"                          @+++..",
"                          @+++..",
"                          @+++..",
"@@@@@@@@@@@@@@@@@@@@@@@@@@@+++..",
"+.@+++++++++++++++++++++++++++..",
"+.@+++++++++++++++++++++++++++..",
"+.@+++++++++++++++++++++++++++..",
"..@.............................",
"..@............................."};
