/* XPM */
static char * left_active_xpm[] = {
"6 7 4 1",
" 	g None",
"@	g #BBBBBB s active_shadow_1",
"+	g #777777 s active_color_1",
".	g #333333 s active_hilight_1",
"..+++@",
"..+++@",
"..+++@",
"..+++@",
"..+++@",
"..+++@",
"..+++@"};
