/* XPM */
static char * close_pressed_xpm[] = {
"24 31 4 1",
" 	c None",
".	c #333333 s active_hilight_1",
"+	c #777777 s active_color_1",
"@	c #BBBBBB s active_shadow_1",
"                        ",
"                        ",
"                        ",
"                        ",
"                        ",
"........................",
".@@@@@@@@@@@@@@@@@@@@@@@",
".@......................",
".@.....................@",
".@..++++++++++++++++++@@",
".@..++++++++++++++++++@@",
".@..++++++++++++++++++@@",
".@..++++++++++++++++++@@",
".@..+++@@.++++++@@.+++@@",
".@..+++@+@.++++@+@.+++@@",
".@..++++@+@.++@+@.++++@@",
".@..+++++@+@.@+@.+++++@@",
".@..++++++@+@+@.++++++@@",
".@..+++++++@+@.+++++++@@",
".@..++++++@+@+@.++++++@@",
".@..+++++@+@.@+@.+++++@@",
".@..++++@+@.++@+@.++++@@",
".@..+++@+@.++++@+@.+++@@",
".@..+++@@.++++++@@.+++@@",
".@..++++++++++++++++++@@",
".@..++++++++++++++++++@@",
".@..++++++++++++++++++@@",
".@..++++++++++++++++++@@",
".@.+++++++++++++++++++@@",
".@@@@@@@@@@@@@@@@@@@@@@@",
"@@@@@@@@@@@@@@@@@@@@@@@@"};
