/* XPM */
static char * top_right_active_xpm[] = {
"31 31 4 1",
" 	c None",
".	c #BBBBBB s inactive_shadow_1",
"+	c #777777 s inactive_color_1",
"@	c #333333 s inactive_hilight_1",
".@@@@@@@@@@@@@@@@@@@@@@@@@@@@@@",
".@@@@@@@@@@@@@@@@@@@@@@@@@@@@@.",
".@+++++++++++++++++++++++++++..",
".@+++++++++++++++++++++++++++..",
".@+++++++++++++++++++++++++++..",
"..........................+++..",
".@@@@@@@@@@@@@@@@@@@@@@@.@+++..",
".@++++++++++++++++++++++.@+++..",
".@++++++++++++++++++++++.@+++..",
".@++++++++++++++++++++++.@+++..",
".@++++++++++++++++++++++.@+++..",
".@++++++++++++++++++++++.@+++..",
".@++++++++++++++++++++++.@+++..",
".@++++++++++++++++++++++.@+++..",
".@++++++++++++++++++++++.@+++..",
".@++++++++++++++++++++++.@+++..",
".@++++++++++++++++++++++.@+++..",
".@++++++++++++++++++++++.@+++..",
".@++++++++++++++++++++++.@+++..",
".@++++++++++++++++++++++.@+++..",
".@++++++++++++++++++++++.@+++..",
".@++++++++++++++++++++++.@+++..",
".@++++++++++++++++++++++.@+++..",
".@++++++++++++++++++++++.@+++..",
".@++++++++++++++++++++++.@+++..",
".@++++++++++++++++++++++.@+++..",
".@++++++++++++++++++++++.@+++..",
".@++++++++++++++++++++++.@+++..",
".@++++++++++++++++++++++.@+++..",
".@.......................@.....",
"@@@@@@@@@@@@@@@@@@@@@@@@@@@@@@@"};
