/* XPM */
static char * close_pressed_xpm[] = {
"20 30 77 1",
" 	c None",
".	c #0B86E5",
"+	c #0A85E4",
"@	c #0A85E3",
"#	c #0984E3",
"$	c #0984E2",
"%	c #0883E2",
"&	c #0883E1",
"*	c #0782E0",
"=	c #1879D1",
"-	c #715286",
";	c #AE3855",
">	c #CC2A3C",
",	c #AD3955",
"'	c #705388",
")	c #0681DF",
"!	c #4B63A6",
"~	c #CA2B3D",
"{	c #D52735",
"]	c #4A63A6",
"^	c #0680DF",
"/	c #4B62A6",
"(	c #D42735",
"_	c #4A62A6",
":	c #0580DE",
"<	c #1677CF",
"[	c #CF2634",
"}	c #D22734",
"|	c #C92B3E",
"1	c #1678CF",
"2	c #047FDD",
"3	c #705185",
"4	c #D02634",
"5	c #72151C",
"6	c #7D171F",
"7	c #CC2533",
"8	c #6F5287",
"9	c #047EDD",
"0	c #AE3753",
"a	c #6A131A",
"b	c #7C171F",
"c	c #AC3855",
"d	c #037DDC",
"e	c #CB2B3D",
"f	c #7B161F",
"g	c #CB2533",
"h	c #037CDB",
"i	c #CA2532",
"j	c #027BDA",
"k	c #AD3654",
"l	c #AC3754",
"m	c #017ADA",
"n	c #6D4F85",
"o	c #6C5086",
"p	c #0179D9",
"q	c #1271CB",
"r	c #C82B3E",
"s	c #1172CB",
"t	c #0078D8",
"u	c #465DA1",
"v	c #435EA3",
"w	c #C92B3D",
"x	c #0078D7",
"y	c #1271C9",
"z	c #6D4E84",
"A	c #AB3654",
"B	c #CA2A3D",
"C	c #6B4F85",
"D	c #1171CA",
"E	c #0077D6",
"F	c #0077D5",
"G	c #0077D4",
"H	c #0076D3",
"I	c #0076D2",
"J	c #0076D1",
"K	c #0075D0",
"L	c #0075CF",
"....................",
"++++++++++++++++++++",
"@@@@@@@@@@@@@@@@@@@@",
"####################",
"$$$$$$$$$$$$$$$$$$$$",
"%%%%%%%%%%%%%%%%%%%%",
"&&&&&&&&&&&&&&&&&&&&",
"********************",
"******=-;>>,'=******",
")))))!~{{{{{{~])))))",
"^^^^/({{{{{{{{(_^^^^",
":::<~{{[}{{}[{{|1:::",
"2223{{45677654{{8222",
"9990{{}6abba6}{{c999",
"ddde{{{76aafg{{{~ddd",
"hhh~{{{76aafi{{{|hhh",
"jjjk{{}6abba6}{{ljjj",
"mmmn{{45677654{{ommm",
"pppq~{{4}{{}4{{rsppp",
"ttttu({{{{{{{{(vtttt",
"tttttuw{{{{{{rvttttt",
"xxxxxxyzABBACDxxxxxx",
"EEEEEEEEEEEEEEEEEEEE",
"FFFFFFFFFFFFFFFFFFFF",
"GGGGGGGGGGGGGGGGGGGG",
"HHHHHHHHHHHHHHHHHHHH",
"IIIIIIIIIIIIIIIIIIII",
"JJJJJJJJJJJJJJJJJJJJ",
"KKKKKKKKKKKKKKKKKKKK",
"LLLLLLLLLLLLLLLLLLLL"};
