/* XPM */
static char * close_active_xpm[] = {
"20 30 66 1",
" 	c None",
".	c #0B86E5",
"+	c #0A85E4",
"@	c #0A85E3",
"#	c #0984E3",
"$	c #0984E2",
"%	c #0883E2",
"&	c #0883E1",
"*	c #0782E0",
"=	c #1879D1",
"-	c #765284",
";	c #C33E54",
">	c #DC3A47",
",	c #C23F56",
"'	c #755285",
")	c #0681DF",
"!	c #4B62A5",
"~	c #DB3B48",
"{	c #F04D54",
"]	c #F25056",
"^	c #DA3B48",
"/	c #4B63A5",
"(	c #0680DF",
"_	c #4B61A5",
":	c #E8414A",
"<	c #E7414A",
"[	c #0580DE",
"}	c #1677CF",
"|	c #DB3C48",
"1	c #1678CF",
"2	c #047FDD",
"3	c #745083",
"4	c #F04E54",
"5	c #735285",
"6	c #047EDD",
"7	c #C23E54",
"8	c #C03F55",
"9	c #037DDC",
"0	c #DC3B49",
"a	c #037CDB",
"b	c #027BDA",
"c	c #C23E55",
"d	c #017ADA",
"e	c #724E82",
"f	c #715085",
"g	c #0179D9",
"h	c #1271CB",
"i	c #DA3C48",
"j	c #1172CB",
"k	c #0078D8",
"l	c #475DA1",
"m	c #455DA2",
"n	c #0078D7",
"o	c #1271C9",
"p	c #724F82",
"q	c #C03E55",
"r	c #714F84",
"s	c #1171CA",
"t	c #0077D6",
"u	c #0077D5",
"v	c #0077D4",
"w	c #0076D3",
"x	c #0076D2",
"y	c #0076D1",
"z	c #0075D0",
"A	c #0075CF",
"....................",
"++++++++++++++++++++",
"@@@@@@@@@@@@@@@@@@@@",
"####################",
"$$$$$$$$$$$$$$$$$$$$",
"%%%%%%%%%%%%%%%%%%%%",
"&&&&&&&&&&&&&&&&&&&&",
"********************",
"******=-;>>,'=******",
")))))!~{]]]]{^/)))))",
"((((_:]]]]]]]]<!((((",
"[[[}~]]]]]]]]]]|1[[[",
"2223{]]]]]]]]]]45222",
"6667]]]]]]]]]]]]8666",
"9990]]]]]]]]]]]]~999",
"aaa~]]]]]]]]]]]]|aaa",
"bbbc]]]]]]]]]]]]8bbb",
"ddde{]]]]]]]]]]{fddd",
"gggh^]]]]]]]]]]ijggg",
"kkkkl<]]]]]]]]<mkkkk",
"kkkkkl^4]]]]{imkkkkk",
"nnnnnnopq~~qrsnnnnnn",
"tttttttttttttttttttt",
"uuuuuuuuuuuuuuuuuuuu",
"vvvvvvvvvvvvvvvvvvvv",
"wwwwwwwwwwwwwwwwwwww",
"xxxxxxxxxxxxxxxxxxxx",
"yyyyyyyyyyyyyyyyyyyy",
"zzzzzzzzzzzzzzzzzzzz",
"AAAAAAAAAAAAAAAAAAAA"};
