/* XPM */
static char * close_inactive_xpm[] = {
"20 30 66 1",
" 	c None",
".	c #0B86E5",
"+	c #0A85E4",
"@	c #0A85E3",
"#	c #0984E3",
"$	c #0984E2",
"%	c #0883E2",
"&	c #0883E1",
"*	c #0782E0",
"=	c #1686DC",
"-	c #67A0CB",
";	c #A7B7C3",
">	c #BBBEC0",
",	c #BCBFC1",
"'	c #A5B6C2",
")	c #67A0CC",
"!	c #0681DF",
"~	c #4394D2",
"{	c #BABEC0",
"]	c #C7C7C7",
"^	c #C8C8C8",
"/	c #BBBFC1",
"(	c #4294D2",
"_	c #0680DF",
":	c #4393D2",
"<	c #C3C3C3",
"[	c #4293D2",
"}	c #0580DE",
"|	c #1484DA",
"1	c #BBBEC1",
"2	c #1384DA",
"3	c #047FDD",
"4	c #659ECA",
"5	c #649FCB",
"6	c #047EDD",
"7	c #A6B6C2",
"8	c #A5B6C3",
"9	c #037DDC",
"0	c #037CDB",
"a	c #027BDA",
"b	c #A4B5C1",
"c	c #A5B5C2",
"d	c #017ADA",
"e	c #649DCA",
"f	c #629CCA",
"g	c #0179D9",
"h	c #107ED6",
"i	c #BABEC1",
"j	c #0F7ED6",
"k	c #0078D8",
"l	c #3E8ECE",
"m	c #C2C2C2",
"n	c #3C8DCE",
"o	c #0078D7",
"p	c #0E7DD4",
"q	c #629BC8",
"r	c #A4B5C2",
"s	c #0E7DD5",
"t	c #0077D6",
"u	c #0077D5",
"v	c #0077D4",
"w	c #0076D3",
"x	c #0076D2",
"y	c #0076D1",
"z	c #0075D0",
"A	c #0075CF",
"....................",
"++++++++++++++++++++",
"@@@@@@@@@@@@@@@@@@@@",
"####################",
"$$$$$$$$$$$$$$$$$$$$",
"%%%%%%%%%%%%%%%%%%%%",
"&&&&&&&&&&&&&&&&&&&&",
"********************",
"******=-;>,')=******",
"!!!!!~{]^^^^]/(!!!!!",
"____:<^^^^^^^^<[____",
"}}}|{^^^^^^^^^^12}}}",
"3334]^^^^^^^^^^]5333",
"6667^^^^^^^^^^^^8666",
"999{^^^^^^^^^^^^{999",
"000{^^^^^^^^^^^^1000",
"aaab^^^^^^^^^^^^caaa",
"ddde]^^^^^^^^^^]fddd",
"gggh/^^^^^^^^^^ijggg",
"kkkkl<^^^^^^^^mnkkkk",
"kkkkkli]^^^^]inkkkkk",
"oooooopqr11rqsoooooo",
"tttttttttttttttttttt",
"uuuuuuuuuuuuuuuuuuuu",
"vvvvvvvvvvvvvvvvvvvv",
"wwwwwwwwwwwwwwwwwwww",
"xxxxxxxxxxxxxxxxxxxx",
"yyyyyyyyyyyyyyyyyyyy",
"zzzzzzzzzzzzzzzzzzzz",
"AAAAAAAAAAAAAAAAAAAA"};
