/* XPM */
static char * close_prelight_xpm[] = {
"20 30 78 1",
" 	c None",
".	c #0B86E5",
"+	c #0A85E4",
"@	c #0A85E3",
"#	c #0984E3",
"$	c #0984E2",
"%	c #0883E2",
"&	c #0883E1",
"*	c #0782E0",
"=	c #1879D1",
"-	c #765284",
";	c #C33E54",
">	c #DC3A47",
",	c #C23F56",
"'	c #755285",
")	c #0681DF",
"!	c #4B62A5",
"~	c #DB3B48",
"{	c #F04D54",
"]	c #F25056",
"^	c #DA3B48",
"/	c #4B63A5",
"(	c #0680DF",
"_	c #4B61A5",
":	c #E8414A",
"<	c #E7414A",
"[	c #0580DE",
"}	c #1677CF",
"|	c #EB4E54",
"1	c #EF4F55",
"2	c #DB3C48",
"3	c #1678CF",
"4	c #047FDD",
"5	c #745083",
"6	c #EC4E54",
"7	c #812B2E",
"8	c #8E2F33",
"9	c #E84D52",
"0	c #822B2E",
"a	c #F04E54",
"b	c #735285",
"c	c #047EDD",
"d	c #C23E54",
"e	c #79282B",
"f	c #8D2F32",
"g	c #C03F55",
"h	c #037DDC",
"i	c #DC3B49",
"j	c #8C2E32",
"k	c #E74C52",
"l	c #037CDB",
"m	c #E64C52",
"n	c #027BDA",
"o	c #C23E55",
"p	c #017ADA",
"q	c #724E82",
"r	c #715085",
"s	c #0179D9",
"t	c #1271CB",
"u	c #DA3C48",
"v	c #1172CB",
"w	c #0078D8",
"x	c #475DA1",
"y	c #455DA2",
"z	c #0078D7",
"A	c #1271C9",
"B	c #724F82",
"C	c #C03E55",
"D	c #714F84",
"E	c #1171CA",
"F	c #0077D6",
"G	c #0077D5",
"H	c #0077D4",
"I	c #0076D3",
"J	c #0076D2",
"K	c #0076D1",
"L	c #0075D0",
"M	c #0075CF",
"....................",
"++++++++++++++++++++",
"@@@@@@@@@@@@@@@@@@@@",
"####################",
"$$$$$$$$$$$$$$$$$$$$",
"%%%%%%%%%%%%%%%%%%%%",
"&&&&&&&&&&&&&&&&&&&&",
"********************",
"******=-;>>,'=******",
")))))!~{]]]]{^/)))))",
"((((_:]]]]]]]]<!((((",
"[[[}~]]|1]]1|]]23[[[",
"4445{]67899806]ab444",
"cccd]]18effe81]]gccc",
"hhhi]]]98eejk]]]~hhh",
"lll~]]]98eejm]]]2lll",
"nnno]]18effe81]]gnnn",
"pppq{]60899806]{rppp",
"ssst^]]61]]16]]uvsss",
"wwwwx<]]]]]]]]<ywwww",
"wwwwwx^a]]]]{uywwwww",
"zzzzzzABC~~CDEzzzzzz",
"FFFFFFFFFFFFFFFFFFFF",
"GGGGGGGGGGGGGGGGGGGG",
"HHHHHHHHHHHHHHHHHHHH",
"IIIIIIIIIIIIIIIIIIII",
"JJJJJJJJJJJJJJJJJJJJ",
"KKKKKKKKKKKKKKKKKKKK",
"LLLLLLLLLLLLLLLLLLLL",
"MMMMMMMMMMMMMMMMMMMM"};
