/* XPM */
static char * hide_active_xpm[] = {
"20 30 71 1",
" 	c None",
".	c #0B86E5",
"+	c #0A85E4",
"@	c #0A85E3",
"#	c #0984E3",
"$	c #0984E2",
"%	c #0883E2",
"&	c #0883E1",
"*	c #0782E0",
"=	c #1984CD",
"-	c #799371",
";	c #C8A537",
">	c #E3AD25",
",	c #E2AD25",
"'	c #C6A637",
")	c #799272",
"!	c #0681DF",
"~	c #4D8B98",
"{	c #E2AE26",
"]	c #F8C334",
"^	c #FAC536",
"/	c #E1AE26",
"(	c #4D8B99",
"_	c #0680DF",
":	c #4D8A98",
"<	c #EEB729",
"[	c #4D8A99",
"}	c #0580DE",
"|	c #1782CB",
"1	c #E1AF26",
"2	c #1682CC",
"3	c #047FDD",
"4	c #789170",
"5	c #F8C333",
"6	c #769172",
"7	c #047EDD",
"8	c #C7A535",
"9	c #C6A537",
"0	c #037DDC",
"a	c #E2AF27",
"b	c #037CDB",
"c	c #027BDA",
"d	c #C7A436",
"e	c #C6A536",
"f	c #017ADA",
"g	c #768E6F",
"h	c #F7C233",
"i	c #738E72",
"j	c #0179D9",
"k	c #137CC7",
"l	c #E0AE27",
"m	c #117BC9",
"n	c #0078D8",
"o	c #498595",
"p	c #EEB628",
"q	c #468596",
"r	c #0078D7",
"s	c #127BC6",
"t	c #748E70",
"u	c #C6A436",
"v	c #E2AE25",
"w	c #728D70",
"x	c #117AC7",
"y	c #0077D6",
"z	c #0077D5",
"A	c #0077D4",
"B	c #0076D3",
"C	c #0076D2",
"D	c #0076D1",
"E	c #0075D0",
"F	c #0075CF",
"....................",
"++++++++++++++++++++",
"@@@@@@@@@@@@@@@@@@@@",
"####################",
"$$$$$$$$$$$$$$$$$$$$",
"%%%%%%%%%%%%%%%%%%%%",
"&&&&&&&&&&&&&&&&&&&&",
"********************",
"******=-;>,')=******",
"!!!!!~{]^^^^]/(!!!!!",
"____:<^^^^^^^^<[____",
"}}}|{^^^^^^^^^^12}}}",
"3334]^^^^^^^^^^56333",
"7778^^^^^^^^^^^^9777",
"000a^^^^^^^^^^^^/000",
"bbb{^^^^^^^^^^^^/bbb",
"cccd^^^^^^^^^^^^eccc",
"fffg]^^^^^^^^^^hifff",
"jjjk/^^^^^^^^^^lmjjj",
"nnnno<^^^^^^^^pqnnnn",
"nnnnno/5^^^^hlqnnnnn",
"rrrrrrstuvvuwxrrrrrr",
"yyyyyyyyyyyyyyyyyyyy",
"zzzzzzzzzzzzzzzzzzzz",
"AAAAAAAAAAAAAAAAAAAA",
"BBBBBBBBBBBBBBBBBBBB",
"CCCCCCCCCCCCCCCCCCCC",
"DDDDDDDDDDDDDDDDDDDD",
"EEEEEEEEEEEEEEEEEEEE",
"FFFFFFFFFFFFFFFFFFFF"};
