/* XPM */
static char * hide_pressed_xpm[] = {
"20 30 70 1",
" 	c None",
".	c #0B86E5",
"+	c #0A85E4",
"@	c #0A85E3",
"#	c #0984E3",
"$	c #0984E2",
"%	c #0883E2",
"&	c #0883E1",
"*	c #0782E0",
"=	c #1984CD",
"-	c #749073",
";	c #B29837",
">	c #D09C18",
",	c #B19837",
"'	c #739075",
")	c #0681DF",
"!	c #4D8B99",
"~	c #CF9C1A",
"{	c #DA9E10",
"]	c #4C8A9A",
"^	c #0680DF",
"/	c #4D8A99",
"(	c #D99D10",
"_	c #4C899A",
":	c #0580DE",
"<	c #1782CB",
"[	c #CE9C1B",
"}	c #1682CC",
"|	c #047FDD",
"1	c #728F72",
"2	c #718F74",
"3	c #047EDD",
"4	c #B29835",
"5	c #B09737",
"6	c #037DDC",
"7	c #CF9C19",
"8	c #85610A",
"9	c #6D4F08",
"0	c #037CDB",
"a	c #86610A",
"b	c #87620A",
"c	c #027BDA",
"d	c #B19736",
"e	c #B09736",
"f	c #017ADA",
"g	c #708C72",
"h	c #6E8C73",
"i	c #0179D9",
"j	c #137CC7",
"k	c #CE9C1A",
"l	c #CD9B1B",
"m	c #117BC9",
"n	c #0078D8",
"o	c #488495",
"p	c #468497",
"q	c #CE9B1A",
"r	c #0078D7",
"s	c #127BC6",
"t	c #6F8B71",
"u	c #AF9637",
"v	c #6D8B72",
"w	c #117AC7",
"x	c #0077D6",
"y	c #0077D5",
"z	c #0077D4",
"A	c #0076D3",
"B	c #0076D2",
"C	c #0076D1",
"D	c #0075D0",
"E	c #0075CF",
"....................",
"++++++++++++++++++++",
"@@@@@@@@@@@@@@@@@@@@",
"####################",
"$$$$$$$$$$$$$$$$$$$$",
"%%%%%%%%%%%%%%%%%%%%",
"&&&&&&&&&&&&&&&&&&&&",
"********************",
"******=-;>>,'=******",
")))))!~{{{{{{~])))))",
"^^^^/({{{{{{{{(_^^^^",
":::<~{{{{{{{{{{[}:::",
"|||1{{{{{{{{{{{{2|||",
"3334{{{{{{{{{{{{5333",
"6667{{89999998{{~666",
"000~{{a999999b{{[000",
"cccd{{{{{{{{{{{{eccc",
"fffg{{{{{{{{{{{{hfff",
"iiijk{{{{{{{{{{lmiii",
"nnnno({{{{{{{{(pnnnn",
"nnnnnoq{{{{{{lpnnnnn",
"rrrrrrstu77uvwrrrrrr",
"xxxxxxxxxxxxxxxxxxxx",
"yyyyyyyyyyyyyyyyyyyy",
"zzzzzzzzzzzzzzzzzzzz",
"AAAAAAAAAAAAAAAAAAAA",
"BBBBBBBBBBBBBBBBBBBB",
"CCCCCCCCCCCCCCCCCCCC",
"DDDDDDDDDDDDDDDDDDDD",
"EEEEEEEEEEEEEEEEEEEE"};
