/* XPM */
static char * maximize_prelight_xpm[] = {
"20 30 73 1",
" 	c None",
".	c #0B86E5",
"+	c #0A85E4",
"@	c #0A85E3",
"#	c #0984E3",
"$	c #0984E2",
"%	c #0883E2",
"&	c #0883E1",
"*	c #0782E0",
"=	c #0887CF",
"-	c #0FA479",
";	c #1BC544",
">	c #23D236",
",	c #23D235",
"'	c #0681DF",
")	c #0A969D",
"!	c #24D135",
"~	c #36E746",
"{	c #39EA49",
"]	c #23D135",
"^	c #0A979E",
"/	c #0680DF",
"(	c #0A959D",
"_	c #2CDB3A",
":	c #2BDB3A",
"<	c #0A969E",
"[	c #0580DE",
"}	c #0685CD",
"|	c #23D137",
"1	c #047FDD",
"2	c #0DA378",
"3	c #34D643",
"4	c #1F7F28",
"5	c #1C7524",
"6	c #269D31",
"7	c #0DA379",
"8	c #047EDD",
"9	c #1BC543",
"0	c #1CC344",
"a	c #037DDC",
"b	c #24D136",
"c	c #34D542",
"d	c #35D843",
"e	c #1F8028",
"f	c #037CDB",
"g	c #22D137",
"h	c #027BDA",
"i	c #1BC343",
"j	c #017ADA",
"k	c #0CA076",
"l	c #0CA179",
"m	c #0179D9",
"n	c #027FC9",
"o	c #22CF36",
"p	c #017ECA",
"q	c #0078D8",
"r	c #06919A",
"s	c #2BDB39",
"t	c #05909B",
"u	c #0078D7",
"v	c #017EC7",
"w	c #0C9F76",
"x	c #1BC344",
"y	c #0BA078",
"z	c #017DC8",
"A	c #0077D6",
"B	c #0077D5",
"C	c #0077D4",
"D	c #0076D3",
"E	c #0076D2",
"F	c #0076D1",
"G	c #0075D0",
"H	c #0075CF",
"....................",
"++++++++++++++++++++",
"@@@@@@@@@@@@@@@@@@@@",
"####################",
"$$$$$$$$$$$$$$$$$$$$",
"%%%%%%%%%%%%%%%%%%%%",
"&&&&&&&&&&&&&&&&&&&&",
"********************",
"******=-;>,;-=******",
"''''')!~{{{{~]^'''''",
"////(_{{{{{{{{:<////",
"[[[}!{{{{{{{{{{|}[[[",
"1112~{{{34556{{~7111",
"8889{{{3{3455{{{0888",
"aaab{{{4c{de5{{{]aaa",
"fff!{{{54c{de{{{gfff",
"hhh;{{{5543{3{{{ihhh",
"jjjk~{{65543{{{~ljjj",
"mmmn]{{{{{{{{{{opmmm",
"qqqqr:{{{{{{{{stqqqq",
"qqqqqrg~{{{{~otqqqqq",
"uuuuuuvwx]]xyzuuuuuu",
"AAAAAAAAAAAAAAAAAAAA",
"BBBBBBBBBBBBBBBBBBBB",
"CCCCCCCCCCCCCCCCCCCC",
"DDDDDDDDDDDDDDDDDDDD",
"EEEEEEEEEEEEEEEEEEEE",
"FFFFFFFFFFFFFFFFFFFF",
"GGGGGGGGGGGGGGGGGGGG",
"HHHHHHHHHHHHHHHHHHHH"};
