/* XPM */
static char * maximize_pressed_xpm[] = {
"20 30 70 1",
" 	c None",
".	c #0B86E5",
"+	c #0A85E4",
"@	c #0A85E3",
"#	c #0984E3",
"$	c #0984E2",
"%	c #0883E2",
"&	c #0883E1",
"*	c #0782E0",
"=	c #0887CF",
"-	c #0DA27C",
";	c #0FB542",
">	c #12BE26",
",	c #10B443",
"'	c #0DA27B",
")	c #0681DF",
"!	c #0A969E",
"~	c #12BD27",
"{	c #13C11E",
"]	c #09969F",
"^	c #0680DF",
"/	c #0A959E",
"(	c #12C01E",
"_	c #09959F",
":	c #0580DE",
"<	c #0685CD",
"[	c #12BD28",
"}	c #047FDD",
"|	c #0BA17A",
"1	c #11B01B",
"2	c #0A6810",
"3	c #09600F",
"4	c #0D8114",
"5	c #0CA07B",
"6	c #047EDD",
"7	c #0FB340",
"8	c #10B442",
"9	c #037DDC",
"0	c #12BD26",
"a	c #12B21C",
"b	c #0A6A10",
"c	c #037CDB",
"d	c #027BDA",
"e	c #0EB341",
"f	c #0FB342",
"g	c #017ADA",
"h	c #0A9E78",
"i	c #0A9E7A",
"j	c #0179D9",
"k	c #027FC9",
"l	c #11BC29",
"m	c #017ECA",
"n	c #0078D8",
"o	c #05909A",
"p	c #068F9C",
"q	c #11BC28",
"r	c #0078D7",
"s	c #017EC7",
"t	c #0A9C78",
"u	c #0FB242",
"v	c #0A9D79",
"w	c #017DC8",
"x	c #0077D6",
"y	c #0077D5",
"z	c #0077D4",
"A	c #0076D3",
"B	c #0076D2",
"C	c #0076D1",
"D	c #0075D0",
"E	c #0075CF",
"....................",
"++++++++++++++++++++",
"@@@@@@@@@@@@@@@@@@@@",
"####################",
"$$$$$$$$$$$$$$$$$$$$",
"%%%%%%%%%%%%%%%%%%%%",
"&&&&&&&&&&&&&&&&&&&&",
"********************",
"******=-;>>,'=******",
")))))!~{{{{{{~])))))",
"^^^^/({{{{{{{{(_^^^^",
":::<~{{{{{{{{{{[<:::",
"}}}|{{{{12334{{{5}}}",
"6667{{{1{1233{{{8666",
"9990{{{21{ab3{{{~999",
"ccc~{{{321{ab{{{[ccc",
"ddde{{{3321{1{{{fddd",
"gggh{{{43321{{{{iggg",
"jjjk~{{{{{{{{{{lmjjj",
"nnnno({{{{{{{{(pnnnn",
"nnnnnoq{{{{{{qpnnnnn",
"rrrrrrstu00uvwrrrrrr",
"xxxxxxxxxxxxxxxxxxxx",
"yyyyyyyyyyyyyyyyyyyy",
"zzzzzzzzzzzzzzzzzzzz",
"AAAAAAAAAAAAAAAAAAAA",
"BBBBBBBBBBBBBBBBBBBB",
"CCCCCCCCCCCCCCCCCCCC",
"DDDDDDDDDDDDDDDDDDDD",
"EEEEEEEEEEEEEEEEEEEE"};
