/* XPM */
static char * maximize_active_xpm[] = {
"20 30 66 1",
" 	c None",
".	c #0B86E5",
"+	c #0A85E4",
"@	c #0A85E3",
"#	c #0984E3",
"$	c #0984E2",
"%	c #0883E2",
"&	c #0883E1",
"*	c #0782E0",
"=	c #0887CF",
"-	c #0FA479",
";	c #1BC544",
">	c #23D236",
",	c #23D235",
"'	c #0681DF",
")	c #0A969D",
"!	c #24D135",
"~	c #36E746",
"{	c #39EA49",
"]	c #23D135",
"^	c #0A979E",
"/	c #0680DF",
"(	c #0A959D",
"_	c #2CDB3A",
":	c #2BDB3A",
"<	c #0A969E",
"[	c #0580DE",
"}	c #0685CD",
"|	c #23D137",
"1	c #047FDD",
"2	c #0DA378",
"3	c #0DA379",
"4	c #047EDD",
"5	c #1BC543",
"6	c #1CC344",
"7	c #037DDC",
"8	c #24D136",
"9	c #037CDB",
"0	c #22D137",
"a	c #027BDA",
"b	c #1BC343",
"c	c #017ADA",
"d	c #0CA076",
"e	c #0CA179",
"f	c #0179D9",
"g	c #027FC9",
"h	c #22CF36",
"i	c #017ECA",
"j	c #0078D8",
"k	c #06919A",
"l	c #2BDB39",
"m	c #05909B",
"n	c #0078D7",
"o	c #017EC7",
"p	c #0C9F76",
"q	c #1BC344",
"r	c #0BA078",
"s	c #017DC8",
"t	c #0077D6",
"u	c #0077D5",
"v	c #0077D4",
"w	c #0076D3",
"x	c #0076D2",
"y	c #0076D1",
"z	c #0075D0",
"A	c #0075CF",
"....................",
"++++++++++++++++++++",
"@@@@@@@@@@@@@@@@@@@@",
"####################",
"$$$$$$$$$$$$$$$$$$$$",
"%%%%%%%%%%%%%%%%%%%%",
"&&&&&&&&&&&&&&&&&&&&",
"********************",
"******=-;>,;-=******",
"''''')!~{{{{~]^'''''",
"////(_{{{{{{{{:<////",
"[[[}!{{{{{{{{{{|}[[[",
"1112~{{{{{{{{{{~3111",
"4445{{{{{{{{{{{{6444",
"7778{{{{{{{{{{{{]777",
"999!{{{{{{{{{{{{0999",
"aaa;{{{{{{{{{{{{baaa",
"cccd~{{{{{{{{{{~eccc",
"fffg]{{{{{{{{{{hifff",
"jjjjk:{{{{{{{{lmjjjj",
"jjjjjk0~{{{{~hmjjjjj",
"nnnnnnopq]]qrsnnnnnn",
"tttttttttttttttttttt",
"uuuuuuuuuuuuuuuuuuuu",
"vvvvvvvvvvvvvvvvvvvv",
"wwwwwwwwwwwwwwwwwwww",
"xxxxxxxxxxxxxxxxxxxx",
"yyyyyyyyyyyyyyyyyyyy",
"zzzzzzzzzzzzzzzzzzzz",
"AAAAAAAAAAAAAAAAAAAA"};
