/* XPM */
static char * title_5_inactive_xpm[] = {
"5 30 29 1",
" 	c None",
".	c #0B86E5",
"+	c #0A85E4",
"@	c #0A85E3",
"#	c #0984E3",
"$	c #0984E2",
"%	c #0883E2",
"&	c #0883E1",
"*	c #0782E0",
"=	c #0681DF",
"-	c #0680DF",
";	c #0580DE",
">	c #047FDD",
",	c #047EDD",
"'	c #037DDC",
")	c #037CDB",
"!	c #027BDA",
"~	c #017ADA",
"{	c #0179D9",
"]	c #0078D8",
"^	c #0078D7",
"/	c #0077D6",
"(	c #0077D5",
"_	c #0077D4",
":	c #0076D3",
"<	c #0076D2",
"[	c #0076D1",
"}	c #0075D0",
"|	c #0075CF",
".....",
"+++++",
"@@@@@",
"#####",
"$$$$$",
"%%%%%",
"&&&&&",
"*****",
"*****",
"=====",
"-----",
";;;;;",
">>>>>",
",,,,,",
"'''''",
")))))",
"!!!!!",
"~~~~~",
"{{{{{",
"]]]]]",
"]]]]]",
"^^^^^",
"/////",
"(((((",
"_____",
":::::",
"<<<<<",
"[[[[[",
"}}}}}",
"|||||"};
