/* XPM */
static char * bottom_left_inactive_xpm[] = {
"32 32 4 1",
" 	g None",
"@	g #333333 s inactive_shadow_1",
"+	g #777777 s inactive_color_1",
".	g #BBBBBB s inactive_hilight_1",
"..+++@                          ",
"@@@@@@                          ",
".....@                          ",
"..+++@                          ",
"..+++@                          ",
"..+++@                          ",
"..+++@                          ",
"..+++@                          ",
"..+++@                          ",
"..+++@                          ",
"..+++@                          ",
"..+++@                          ",
"..+++@                          ",
"..+++@                          ",
"..+++@                          ",
"..+++@                          ",
"..+++@                          ",
"..+++@                          ",
"..+++@                          ",
"..+++@                          ",
"..+++@                          ",
"..+++@                          ",
"..+++@                          ",
"..+++@                          ",
"..+++@                          ",
"..+++@                          ",
"..+++@..........................",
"..+++++++++++++++++++++++++++@.+",
"..+++++++++++++++++++++++++++@.+",
"..+++++++++++++++++++++++++++@.+",
"..@@@@@@@@@@@@@@@@@@@@@@@@@@@@.@",
".@@@@@@@@@@@@@@@@@@@@@@@@@@@@@.@"};
