/* XPM */
static char * close_inactive_xpm[] = {
"24 31 4 1",
" 	c None",
".	c #333333 s inactive_shadow_1",
"+	c #777777 s inactive_color_1",
"@	c #BBBBBB s inactive_hilight_1",
"                        ",
"                        ",
"                        ",
"                        ",
"                        ",
"........................",
"@@@@@@@@@@@@@@@@@@@@@@@.",
"@++++++++++++++++++++++.",
"@++++++++++++++++++++++.",
"@++++++++++++++++++++++.",
"@++++++++++++++++++++++.",
"@++++++++++++++++++++++.",
"@+++++@@.++++++@@.+++++.",
"@+++++@+@.++++@+@.+++++.",
"@++++++@+@.++@+@.++++++.",
"@+++++++@+@.@+@.+++++++.",
"@++++++++@+@+@.++++++++.",
"@+++++++++@+@.+++++++++.",
"@++++++++@+@+@.++++++++.",
"@+++++++@+@.@+@.+++++++.",
"@++++++@+@.++@+@.++++++.",
"@+++++@+@.++++@+@.+++++.",
"@+++++@@.++++++@@.+++++.",
"@++++++++++++++++++++++.",
"@++++++++++++++++++++++.",
"@++++++++++++++++++++++.",
"@++++++++++++++++++++++.",
"@++++++++++++++++++++++.",
"@++++++++++++++++++++++.",
"@.......................",
"@@@@@@@@@@@@@@@@@@@@@@@@"};
